<svg height="512pt" viewBox="0 0 512 512.00052" width="512pt" xmlns="http://www.w3.org/2000/svg"><path d="m134.957031 427.203125 151.753907-151.753906-50.160157-50.164063-151.753906 151.753906c-22.476563-5.5-47.195313.527344-64.742187 18.078126-26.738282 26.738281-26.738282 70.09375 0 96.832031 26.742187 26.742187 70.085937 26.730469 96.828124-.007813 17.546876-17.546875 23.574219-42.265625 18.074219-64.738281zm-83.4375 33.28125c-9.359375-9.363281-9.351562-24.535156.007813-33.894531 9.355468-9.351563 24.527344-9.359375 33.886718 0 9.359376 9.359375 9.351563 24.53125 0 33.886718-9.359374 9.359376-24.53125 9.367188-33.894531.007813zm0 0" fill="#e6e6e6"/><path d="m491.945312 20.050781c-26.742187-26.738281-70.085937-26.730469-96.820312 0-26.742188 26.742188-26.746094 70.089844-.007812 96.828125 26.742187 26.742188 70.085937 26.730469 96.828124-.007812 26.730469-26.730469 26.738282-70.078125 0-96.820313zm-65.363281 65.363281c-9.359375-9.363281-9.351562-24.535156.007813-33.894531 9.355468-9.355469 24.527344-9.363281 33.886718 0 9.359376 9.359375 9.355469 24.53125 0 33.886719-9.359374 9.359375-24.53125 9.367188-33.894531.007812zm0 0" fill="#e6e6e6"/><g fill="#ccc"><path d="m59.296875 465.679688c1.171875 2.828124 2.902344 5.480468 5.199219 7.78125 9.359375 9.359374 24.535156 9.351562 33.894531-.007813 9.351563-9.355469 9.359375-24.527344 0-33.886719-2.300781-2.300781-4.949219-4.03125-7.777344-5.199218 3.589844 8.683593 1.855469 19.050781-5.199219 26.109374-7.0625 7.058594-17.429687 8.792969-26.117187 5.203126zm0 0"/><path d="m33.03125 408.089844c17.546875-17.546875 42.265625-23.574219 64.738281-18.078125l151.753907-151.753907-12.976563-12.976562-151.75 151.757812c-22.476563-5.5-47.195313.527344-64.742187 18.078126-26.738282 26.738281-26.738282 70.09375 0 96.832031 2.203124 2.203125 4.527343 4.203125 6.933593 6.042969-20.496093-26.84375-18.496093-65.363282 6.042969-89.902344zm0 0"/><path d="m408.101562 33.027344c24.53125-24.53125 63.042969-26.539063 89.886719-6.042969-1.839843-2.40625-3.84375-4.730469-6.042969-6.933594-26.742187-26.738281-70.089843-26.730469-96.820312 0-26.742188 26.742188-26.746094 70.089844-.007812 96.828125 2.203124 2.203125 4.523437 4.203125 6.933593 6.042969-20.496093-26.839844-18.488281-65.355469 6.050781-89.894531zm0 0"/><path d="m434.359375 90.609375c1.171875 2.828125 2.902344 5.480469 5.199219 7.777344 9.359375 9.363281 24.535156 9.355469 33.894531-.003907 9.351563-9.355468 9.359375-24.527343 0-33.886718-2.296875-2.300782-4.949219-4.03125-7.777344-5.199219 3.589844 8.683594 1.855469 19.050781-5.199219 26.109375-7.058593 7.058594-17.429687 8.796875-26.117187 5.203125zm0 0"/></g><path d="m309.453125 84.753906 117.785156 117.785156-127.046875 127.046876-117.785156-117.785157zm0 0" fill="#5c5e70"/><path d="m309.453125 84.753906 34.222656 34.222656-127.046875 127.046876-34.222656-34.222657zm0 0" fill="#3b3d4c"/><path d="m456.851562 201.023438-20.46875 20.46875c-7.628906 7.628906-20 7.636718-27.636718 0l-118.242188-118.242188c-7.628906-7.628906-7.628906-20.007812 0-27.636719l20.46875-20.46875c7.636719-7.636719 20.007813-7.628906 27.636719 0l118.242187 118.242188c7.636719 7.636719 7.636719 20 0 27.636719zm0 0" fill="#f99041"/><path d="m456.851562 201.023438-20.46875 20.46875c-7.628906 7.628906-20 7.636718-27.636718 0l-88.582032-88.585938c-7.628906-7.628906-7.628906-20.003906 0-27.636719l20.464844-20.464843c7.636719-7.636719 20.007813-7.628907 27.636719 0l88.585937 88.582031c7.636719 7.636719 7.636719 20 0 27.636719zm0 0" fill="#fbd25f"/><path d="m267.125 327.179688-107.617188-69.371094c-8.199218-5.285156-18.972656-4.132813-25.867187 2.761718-9.335937 9.335938-7.671875 24.902344 3.421875 32.054688l107.617188 69.371094c8.199218 5.285156 18.972656 4.132812 25.867187-2.761719 9.335937-9.335937 7.675781-24.902344-3.421875-32.054687zm0 0" fill="#fbd25f"/><path d="m216.953125 377.351562-107.617187-69.371093c-8.199219-5.285157-18.972657-4.132813-25.867188 2.761719-9.335938 9.335937-7.671875 24.90625 3.421875 32.058593l107.617187 69.371094c8.199219 5.28125 18.972657 4.132813 25.867188-2.765625 9.335938-9.335938 7.671875-24.902344-3.421875-32.054688zm0 0" fill="#fbd25f"/><path d="m169.492188 313.539062-32.429688-20.910156c-1.285156-.828125-2.4375-1.761718-3.46875-2.796875-7.867188-7.867187-8.210938-21.003906.042969-29.261719 6.894531-6.890624 17.671875-8.046874 25.867187-2.765624l32.441406 20.921874c-8.203124-5.296874-18.976562-4.144531-25.875 2.753907-8.257812 8.257812-7.90625 21.402343-.03125 29.277343 1.027344 1.027344 2.175782 1.960938 3.453126 2.78125zm0 0" fill="#f99041"/><path d="m119.320312 363.710938-32.429687-20.910157c-1.285156-.828125-2.4375-1.761719-3.46875-2.796875-7.867187-7.867187-8.210937-21.003906.042969-29.261718 6.894531-6.890626 17.671875-8.046876 25.867187-2.765626l32.441407 20.921876c-8.203126-5.296876-18.976563-4.144532-25.875 2.753906-8.257813 8.257812-7.90625 21.402344-.03125 29.277344 1.027343 1.027343 2.175781 1.960937 3.453124 2.78125zm0 0" fill="#f99041"/></svg>