<svg height="512.00052pt" viewBox="0 0 512.00052 512.00052" width="512.00052pt" xmlns="http://www.w3.org/2000/svg"><path d="m483.714844 187.714844-159.429688-159.429688c-37.710937-37.714844-98.859375-37.714844-136.570312 0l-159.429688 159.429688c-37.714844 37.710937-37.714844 98.859375 0 136.570312l159.429688 159.429688c37.710937 37.714844 98.859375 37.714844 136.570312 0l159.429688-159.429688c37.714844-37.710937 37.714844-98.859375 0-136.570312zm0 0" fill="#fbd25f"/><path d="m432.273438 256c0 97.351562-78.921876 176.273438-176.273438 176.273438s-176.273438-78.921876-176.273438-176.273438 78.921876-176.273438 176.273438-176.273438 176.273438 78.921876 176.273438 176.273438zm0 0" fill="#3b3d4c"/><path d="m400.824219 256c0 47.730469-23.097657 90.070312-58.714844 116.457031-24.070313 17.832031-53.855469 28.371094-86.105469 28.371094-79.992187 0-144.832031-64.847656-144.832031-144.828125 0-79.984375 64.839844-144.832031 144.832031-144.832031 32.25 0 62.035156 10.542969 86.105469 28.371093 35.617187 26.386719 58.714844 68.730469 58.714844 116.460938zm0 0" fill="#5c5e70"/><path d="m400.824219 256c0 47.730469-23.097657 90.070312-58.714844 116.457031-35.625-26.375-58.722656-68.714843-58.722656-116.457031s23.097656-90.082031 58.722656-116.460938c35.617187 26.386719 58.714844 68.730469 58.714844 116.460938zm0 0" fill="#6c6e7c"/><path d="m297.230469 256c0 17.378906-10.75 32.25-25.96875 38.3125-4.71875 1.878906-9.867188 2.914062-15.257813 2.914062-22.769531 0-41.230468-18.457031-41.230468-41.226562s18.460937-41.230469 41.230468-41.230469c5.390625 0 10.539063 1.039063 15.257813 2.917969 15.21875 6.0625 25.96875 20.933594 25.96875 38.3125zm0 0" fill="#ccc"/><g fill="#e6e6e6"><path d="m297.230469 256c0 17.378906-10.75 32.25-25.96875 38.3125-15.214844-6.0625-25.964844-20.933594-25.964844-38.3125s10.75-32.25 25.964844-38.3125c15.21875 6.0625 25.96875 20.933594 25.96875 38.3125zm0 0"/><path d="m273.085938 37.128906c0 9.433594-7.648438 17.085938-17.085938 17.085938s-17.085938-7.652344-17.085938-17.085938c0-9.4375 7.648438-17.085937 17.085938-17.085937s17.085938 7.648437 17.085938 17.085937zm0 0"/><path d="m273.085938 474.871094c0 9.4375-7.648438 17.085937-17.085938 17.085937s-17.085938-7.648437-17.085938-17.085937c0-9.433594 7.648438-17.082032 17.085938-17.082032s17.085938 7.648438 17.085938 17.082032zm0 0"/><path d="m491.957031 256c0 9.4375-7.648437 17.085938-17.085937 17.085938-9.433594 0-17.082032-7.648438-17.082032-17.085938s7.648438-17.085938 17.082032-17.085938c9.4375 0 17.085937 7.648438 17.085937 17.085938zm0 0"/><path d="m54.214844 256c0 9.4375-7.652344 17.085938-17.085938 17.085938-9.4375 0-17.085937-7.648438-17.085937-17.085938s7.648437-17.085938 17.085937-17.085938c9.433594 0 17.085938 7.648438 17.085938 17.085938zm0 0"/></g></svg>